<svg width="242" height="42" viewBox="0 0 242 42" fill="none" xmlns="http://www.w3.org/2000/svg">
<path d="M19.2426 6.28259H25.7978V37.7897H20.7228L6.55517 18.7163V37.7897H0V6.28259H5.03268L19.2426 25.2292V6.28259Z" fill="#FDFCFC"/>
<path d="M78.2329 14.1911C84.7881 14.1911 89.9476 19.4775 89.9476 26.2442C89.9476 32.9685 84.9149 38.2972 78.1906 38.2972C75.3571 38.2972 72.8196 37.3668 71.1702 35.5906V37.7897H65.2494V6.28259H71.5931V16.644C73.1579 15.0792 75.4839 14.1911 78.2329 14.1911ZM77.4293 32.5879C80.8972 32.5879 83.3924 29.9658 83.3924 26.2442C83.3924 22.5648 80.8972 19.9004 77.4293 19.9004C74.0037 19.9004 71.5931 22.5225 71.5931 26.2442C71.5931 30.0081 74.0037 32.5879 77.4293 32.5879Z" fill="#FDFCFC"/>
<path d="M95.7169 37.7897V6.28259H102.061V37.7897H95.7169Z" fill="#FDFCFC"/>
<path d="M130.951 25.5675C130.951 26.4979 130.866 27.386 130.655 28.0204H114.415C114.795 30.9385 116.868 32.7993 119.997 32.7993C122.239 32.7993 123.888 31.8266 124.776 30.2618L129.851 32.6725C128.456 36.0558 124.649 38.2972 119.913 38.2972C112.596 38.2972 107.817 32.8839 107.817 26.2019C107.817 19.3084 112.892 14.1911 119.49 14.1911C125.96 14.1911 130.951 19.1815 130.951 25.5675ZM114.542 23.3683H124.226C123.973 20.9154 122.112 19.2661 119.49 19.2661C116.995 19.2661 115.176 20.704 114.542 23.3683Z" fill="#FDFCFC"/>
<path d="M40.9435 19.283C40.7564 19.5732 40.4488 19.7693 40.1037 19.783C39.2026 19.8188 38.3192 19.6905 37.4534 19.398C36.414 19.0468 35.4903 18.5106 34.6823 17.7893C33.8992 17.0588 33.3219 16.1948 32.9505 15.1974C32.3656 13.6265 32.2396 12.1827 32.5728 10.8662C32.9309 9.54035 33.5859 8.40205 34.5379 7.45128C35.5149 6.49123 36.6517 5.76979 37.9483 5.28696C38.5218 5.0734 39.1513 4.89578 39.8368 4.7541C40.0291 4.71435 40.2209 4.67926 40.4122 4.64882C41.2372 4.51758 41.962 5.13471 42.0779 5.96197C42.2054 6.87198 41.5542 7.70275 40.6573 7.90259C40.6477 7.90475 40.638 7.90691 40.6283 7.90908C40.0519 8.03855 39.5393 8.18686 39.0904 8.35399C38.1927 8.68826 37.4552 9.14747 36.8777 9.73162C36.3002 10.3158 35.9188 10.9689 35.7334 11.6909C35.5387 12.3881 35.5806 13.1107 35.8592 13.8587C36.1099 14.532 36.5244 15.0733 37.1027 15.4826C37.6967 15.8576 38.3671 16.1332 39.1141 16.3094C39.8519 16.4605 40.5696 16.5198 41.2672 16.4871C41.7993 16.4426 42.3213 17.146 42.032 17.5948L40.9435 19.283Z" fill="#FDFCFC"/>
<mask id="path-3-inside-1_101_434" fill="white">
<path d="M58.2323 29.6368C59.2721 29.9349 59.8872 31.0293 59.4279 32.0087C58.5083 33.9695 57.0818 35.664 55.2806 36.9077C52.939 38.5245 50.1092 39.2795 47.2734 39.0438C44.4376 38.8082 41.7712 37.5966 39.7286 35.6154C37.686 33.6342 36.3935 31.0061 36.0713 28.1788C35.7492 25.3515 36.4174 22.5 37.962 20.1101C39.5066 17.7202 41.8321 15.9398 44.5422 15.0723C47.2523 14.2048 50.1794 14.3038 52.8247 15.3525C54.8595 16.1591 56.6306 17.4892 57.9677 19.1929C58.6356 20.0439 58.2824 21.2486 57.3363 21.773C56.3902 22.2975 55.2122 21.9344 54.4829 21.1355C53.6306 20.2017 52.5721 19.4663 51.381 18.9942C49.5782 18.2795 47.5834 18.212 45.7365 18.8032C43.8895 19.3944 42.3047 20.6078 41.252 22.2365C40.1994 23.8652 39.744 25.8085 39.9636 27.7353C40.1831 29.6621 41.0639 31.4532 42.456 32.8034C43.848 34.1536 45.6652 34.9793 47.5978 35.1399C49.5304 35.3005 51.4589 34.786 53.0547 33.6841C54.109 32.9561 54.975 32.0015 55.5955 30.8999C56.1263 29.9573 57.1924 29.3386 58.2323 29.6368Z"/>
</mask>
<path d="M58.2323 29.6368C59.2721 29.9349 59.8872 31.0293 59.4279 32.0087C58.5083 33.9695 57.0818 35.664 55.2806 36.9077C52.939 38.5245 50.1092 39.2795 47.2734 39.0438C44.4376 38.8082 41.7712 37.5966 39.7286 35.6154C37.686 33.6342 36.3935 31.0061 36.0713 28.1788C35.7492 25.3515 36.4174 22.5 37.962 20.1101C39.5066 17.7202 41.8321 15.9398 44.5422 15.0723C47.2523 14.2048 50.1794 14.3038 52.8247 15.3525C54.8595 16.1591 56.6306 17.4892 57.9677 19.1929C58.6356 20.0439 58.2824 21.2486 57.3363 21.773C56.3902 22.2975 55.2122 21.9344 54.4829 21.1355C53.6306 20.2017 52.5721 19.4663 51.381 18.9942C49.5782 18.2795 47.5834 18.212 45.7365 18.8032C43.8895 19.3944 42.3047 20.6078 41.252 22.2365C40.1994 23.8652 39.744 25.8085 39.9636 27.7353C40.1831 29.6621 41.0639 31.4532 42.456 32.8034C43.848 34.1536 45.6652 34.9793 47.5978 35.1399C49.5304 35.3005 51.4589 34.786 53.0547 33.6841C54.109 32.9561 54.975 32.0015 55.5955 30.8999C56.1263 29.9573 57.1924 29.3386 58.2323 29.6368Z" stroke="#FDFCFC" stroke-width="4.35386" mask="url(#path-3-inside-1_101_434)"/>
<circle cx="58.4426" cy="25.6507" r="1.30616" transform="rotate(16 58.4426 25.6507)" stroke="#FDFCFC" stroke-width="0.870772"/>
<circle cx="46.71" cy="5.75446" r="1.30616" transform="rotate(16 46.71 5.75446)" stroke="#FDFCFC" stroke-width="0.870772"/>
<circle cx="180.573" cy="8.06861" r="2.30695" stroke="#FDFCFC" stroke-width="1.53797"/>
<path d="M163.594 4.99268H169.938V36.4998H163.383V16.1999L153.867 28.4644H153.021L143.506 15.7347V36.4998H136.951V4.99268H143.294L153.402 18.3145L163.594 4.99268Z" fill="#FDFCFC"/>
<path d="M177.403 36.4998V13.4087H183.747V36.4998H177.403Z" fill="#FDFCFC"/>
<path d="M203.163 12.9012C208.365 12.9012 211.918 16.4114 211.918 21.6555V36.4998H205.574V23.0088C205.574 20.3445 203.84 18.6105 201.345 18.6105C198.85 18.6105 197.116 20.3445 197.116 23.0088V36.4998H190.772V13.4087H196.693V16.1999C197.877 13.9585 200.245 12.9012 203.163 12.9012Z" fill="#FDFCFC"/>
<path d="M235.599 4.99268H241.943V36.4998H236.022V34.3006C234.373 36.0769 231.835 37.0073 229.002 37.0073C222.278 37.0073 217.245 31.6786 217.245 24.9542C217.245 18.1876 222.404 12.9012 228.96 12.9012C231.709 12.9012 234.035 13.7893 235.599 15.3541V4.99268ZM229.763 31.298C233.189 31.298 235.599 28.7182 235.599 24.9542C235.599 21.2326 233.189 18.6105 229.763 18.6105C226.295 18.6105 223.8 21.2749 223.8 24.9542C223.8 28.6759 226.295 31.298 229.763 31.298Z" fill="#FDFCFC"/>
</svg>
