<svg width="222" height="39" viewBox="0 0 222 39" fill="none" xmlns="http://www.w3.org/2000/svg">
<path d="M17.6047 5.74805H23.6019V34.5733H18.9589L5.99721 17.1234V34.5733H0V5.74805H4.60431L17.6047 23.0819V5.74805Z" fill="black"/>
<path d="M71.5739 12.9834C77.5711 12.9834 82.2914 17.8198 82.2914 24.0105C82.2914 30.1625 77.6871 35.0376 71.5352 35.0376C68.9428 35.0376 66.6213 34.1864 65.1123 32.5614V34.5733H59.6955V5.74805H65.4993V15.2275C66.9308 13.7959 69.0589 12.9834 71.5739 12.9834ZM70.8387 29.8143C74.0114 29.8143 76.2942 27.4154 76.2942 24.0105C76.2942 20.6443 74.0114 18.2068 70.8387 18.2068C67.7047 18.2068 65.4993 20.6056 65.4993 24.0105C65.4993 27.4541 67.7047 29.8143 70.8387 29.8143Z" fill="black"/>
<path d="M87.5696 34.5733V5.74805H93.3734V34.5733H87.5696Z" fill="black"/>
<path d="M119.804 23.3914C119.804 24.2427 119.727 25.0552 119.534 25.6356H104.676C105.024 28.3053 106.92 30.0077 109.783 30.0077C111.834 30.0077 113.343 29.1178 114.155 27.6862L118.798 29.8916C117.522 32.987 114.039 35.0376 109.706 35.0376C103.012 35.0376 98.6401 30.0851 98.6401 23.9718C98.6401 17.6651 103.283 12.9834 109.319 12.9834C115.239 12.9834 119.804 17.549 119.804 23.3914ZM104.792 21.3795H113.652C113.42 19.1354 111.718 17.6264 109.319 17.6264C107.036 17.6264 105.372 18.9419 104.792 21.3795Z" fill="black"/>
<path d="M37.4582 17.6415C37.287 17.907 37.0056 18.0864 36.6899 18.099C35.8655 18.1318 35.0572 18.0143 34.2651 17.7467C33.3143 17.4254 32.4692 16.9348 31.7299 16.275C31.0135 15.6066 30.4854 14.8162 30.1456 13.9037C29.6104 12.4665 29.4952 11.1456 29.8 9.94113C30.1276 8.72815 30.7269 7.68674 31.5978 6.8169C32.4917 5.93857 33.5317 5.27854 34.718 4.8368C35.2426 4.64142 35.8185 4.47892 36.4457 4.3493C36.6216 4.31293 36.7971 4.28082 36.9721 4.25298C37.7269 4.13291 38.39 4.69751 38.4961 5.45435C38.6127 6.28691 38.0169 7.04696 37.1964 7.2298C37.1875 7.23177 37.1787 7.23375 37.1698 7.23573C36.6425 7.35418 36.1735 7.48986 35.7628 7.64277C34.9416 7.94859 34.2668 8.36871 33.7385 8.90313C33.2101 9.43756 32.8612 10.0351 32.6915 10.6957C32.5134 11.3335 32.5518 11.9946 32.8066 12.679C33.036 13.2949 33.4152 13.7901 33.9443 14.1646C34.4877 14.5077 35.1011 14.7599 35.7845 14.921C36.4595 15.0593 37.1161 15.1135 37.7544 15.0836C38.2412 15.0429 38.7187 15.6864 38.454 16.097L37.4582 17.6415Z" fill="url(#paint0_linear_101_280)"/>
<mask id="path-3-inside-1_101_280" fill="white">
<path d="M53.2752 27.1141C54.2266 27.3869 54.7893 28.3881 54.3691 29.2842C53.5278 31.0781 52.2227 32.6283 50.5748 33.7661C48.4325 35.2454 45.8436 35.936 43.2492 35.7205C40.6547 35.5049 38.2153 34.3964 36.3466 32.5838C34.4778 30.7713 33.2953 28.3669 33.0006 25.7802C32.7059 23.1936 33.3172 20.5848 34.7303 18.3983C36.1434 16.2118 38.271 14.583 40.7504 13.7893C43.2299 12.9957 45.9078 13.0862 48.328 14.0457C50.1895 14.7836 51.8099 16.0006 53.0332 17.5592C53.6442 18.3378 53.3211 19.4399 52.4555 19.9197C51.5899 20.3995 50.5123 20.0674 49.845 19.3364C49.0652 18.4821 48.0968 17.8093 47.0072 17.3774C45.3578 16.7235 43.5328 16.6618 41.8431 17.2027C40.1533 17.7436 38.7034 18.8536 37.7403 20.3437C36.7773 21.8338 36.3607 23.6117 36.5615 25.3745C36.7624 27.1373 37.5682 28.7759 38.8418 30.0112C40.1154 31.2464 41.7778 32.0019 43.546 32.1488C45.3141 32.2957 47.0784 31.825 48.5384 30.8169C49.503 30.1509 50.2952 29.2775 50.8629 28.2697C51.3486 27.4074 52.3239 26.8413 53.2752 27.1141Z"/>
</mask>
<path d="M53.2752 27.1141C54.2266 27.3869 54.7893 28.3881 54.3691 29.2842C53.5278 31.0781 52.2227 32.6283 50.5748 33.7661C48.4325 35.2454 45.8436 35.936 43.2492 35.7205C40.6547 35.5049 38.2153 34.3964 36.3466 32.5838C34.4778 30.7713 33.2953 28.3669 33.0006 25.7802C32.7059 23.1936 33.3172 20.5848 34.7303 18.3983C36.1434 16.2118 38.271 14.583 40.7504 13.7893C43.2299 12.9957 45.9078 13.0862 48.328 14.0457C50.1895 14.7836 51.8099 16.0006 53.0332 17.5592C53.6442 18.3378 53.3211 19.4399 52.4555 19.9197C51.5899 20.3995 50.5123 20.0674 49.845 19.3364C49.0652 18.4821 48.0968 17.8093 47.0072 17.3774C45.3578 16.7235 43.5328 16.6618 41.8431 17.2027C40.1533 17.7436 38.7034 18.8536 37.7403 20.3437C36.7773 21.8338 36.3607 23.6117 36.5615 25.3745C36.7624 27.1373 37.5682 28.7759 38.8418 30.0112C40.1154 31.2464 41.7778 32.0019 43.546 32.1488C45.3141 32.2957 47.0784 31.825 48.5384 30.8169C49.503 30.1509 50.2952 29.2775 50.8629 28.2697C51.3486 27.4074 52.3239 26.8413 53.2752 27.1141Z" stroke="url(#paint1_linear_101_280)" stroke-width="3.98327" mask="url(#path-3-inside-1_101_280)"/>
<circle cx="53.4678" cy="23.4673" r="1.19498" transform="rotate(16 53.4678 23.4673)" stroke="black" stroke-width="0.796653"/>
<circle cx="53.4678" cy="23.4673" r="1.19498" transform="rotate(16 53.4678 23.4673)" stroke="url(#paint2_linear_101_280)" stroke-width="0.796653"/>
<circle cx="42.7341" cy="5.2647" r="1.19498" transform="rotate(16 42.7341 5.2647)" stroke="black" stroke-width="0.796653"/>
<circle cx="42.7341" cy="5.2647" r="1.19498" transform="rotate(16 42.7341 5.2647)" stroke="url(#paint3_linear_101_280)" stroke-width="0.796653"/>
<circle cx="165.714" cy="7.38199" r="2.11059" stroke="url(#paint4_linear_101_280)" stroke-width="1.40706"/>
<path d="M150.18 4.56787H155.984V33.3932H149.987V14.8212L141.281 26.0417H140.507L131.802 14.3956V33.3932H125.804V4.56787H131.608L140.855 16.7557L150.18 4.56787Z" fill="black"/>
<path d="M162.813 33.3932V12.2675H168.617V33.3932H162.813Z" fill="black"/>
<path d="M186.381 11.8032C191.14 11.8032 194.39 15.0146 194.39 19.8124V33.3932H188.587V21.0505C188.587 18.6129 187 17.0266 184.718 17.0266C182.435 17.0266 180.848 18.6129 180.848 21.0505V33.3932H175.045V12.2675H180.461V14.8212C181.545 12.7705 183.712 11.8032 186.381 11.8032Z" fill="black"/>
<path d="M216.056 4.56787H221.86V33.3932H216.443V31.3812C214.934 33.0063 212.613 33.8575 210.02 33.8575C203.868 33.8575 199.264 28.9823 199.264 22.8303C199.264 16.6397 203.985 11.8032 209.982 11.8032C212.497 11.8032 214.625 12.6157 216.056 14.0473V4.56787ZM210.717 28.6341C213.851 28.6341 216.056 26.2739 216.056 22.8303C216.056 19.4255 213.851 17.0266 210.717 17.0266C207.544 17.0266 205.261 19.4642 205.261 22.8303C205.261 26.2352 207.544 28.6341 210.717 28.6341Z" fill="black"/>
<defs>
<linearGradient id="paint0_linear_101_280" x1="28.665" y1="1.0358" x2="72.6907" y2="16.9487" gradientUnits="userSpaceOnUse">
<stop stop-color="#A854E9"/>
<stop offset="1" stop-color="#4F91FC"/>
</linearGradient>
<linearGradient id="paint1_linear_101_280" x1="40.9735" y1="4.1824" x2="91.6795" y2="81.892" gradientUnits="userSpaceOnUse">
<stop stop-color="#A854E9"/>
<stop offset="1" stop-color="#4F91FC"/>
</linearGradient>
<linearGradient id="paint2_linear_101_280" x1="52.238" y1="20.8263" x2="62.1724" y2="29.4242" gradientUnits="userSpaceOnUse">
<stop stop-color="#A854E9"/>
<stop offset="1" stop-color="#4F91FC"/>
</linearGradient>
<linearGradient id="paint3_linear_101_280" x1="41.5043" y1="2.62363" x2="51.4387" y2="11.2216" gradientUnits="userSpaceOnUse">
<stop stop-color="#A854E9"/>
<stop offset="1" stop-color="#4F91FC"/>
</linearGradient>
<linearGradient id="paint4_linear_101_280" x1="163.542" y1="2.71729" x2="181.088" y2="17.9031" gradientUnits="userSpaceOnUse">
<stop stop-color="#A854E9"/>
<stop offset="1" stop-color="#4F91FC"/>
</linearGradient>
</defs>
</svg>
