<svg width="36" height="36" viewBox="0 0 36 36" fill="none" xmlns="http://www.w3.org/2000/svg">
<circle opacity="0.5" cx="18" cy="18" r="18" fill="#A854E9" fill-opacity="0.24"/>
<circle cx="18" cy="18" r="12" fill="#FDFDFF"/>
<path d="M18.1721 25C17.3097 25 16.5202 24.8481 15.8036 24.5442C15.087 24.2281 14.4858 23.7784 14 23.195L15.6397 21.5722C15.8826 21.9369 16.2287 22.2286 16.6781 22.4474C17.1275 22.6662 17.6134 22.7756 18.1356 22.7756C18.6215 22.7756 19.0405 22.6905 19.3927 22.5203C19.7449 22.338 20.0182 22.0888 20.2126 21.7728C20.419 21.4446 20.5223 21.0678 20.5223 20.6424C20.5223 20.1926 20.419 19.8097 20.2126 19.4937C20.0182 19.1777 19.7328 18.9345 19.3563 18.7644C18.9798 18.5942 18.5304 18.5091 18.0081 18.5091C17.7773 18.5091 17.5405 18.5273 17.2976 18.5638C17.0547 18.5881 16.8482 18.6307 16.6781 18.6914L17.7713 17.3057C18.0749 17.2085 18.3725 17.1295 18.664 17.0687C18.9676 16.9958 19.247 16.9593 19.502 16.9593C20.1579 16.9593 20.747 17.1173 21.2692 17.4334C21.8036 17.7373 22.2227 18.1748 22.5263 18.7461C22.8421 19.3053 23 19.9677 23 20.7335C23 21.5844 22.7996 22.3319 22.3988 22.9762C21.998 23.6082 21.4332 24.1066 20.7045 24.4712C19.9879 24.8237 19.1437 25 18.1721 25ZM16.6781 18.6914V17.2693L19.9575 13.4586L22.7996 13.4222L19.4109 17.3057L16.6781 18.6914ZM14.7105 14.1515V12H22.7996V13.4222L20.7773 14.1515H14.7105Z" fill="url(#paint0_linear_101_498)"/>
<defs>
<linearGradient id="paint0_linear_101_498" x1="15.0267" y1="7.72557" x2="51.137" y2="29.3619" gradientUnits="userSpaceOnUse">
<stop stop-color="#A854E9"/>
<stop offset="1" stop-color="#4F91FC"/>
</linearGradient>
</defs>
</svg>
