<svg width="36" height="36" viewBox="0 0 36 36" fill="none" xmlns="http://www.w3.org/2000/svg">
<circle opacity="0.5" cx="18" cy="18" r="18" fill="#A854E9" fill-opacity="0.24"/>
<circle cx="18" cy="18" r="12" fill="#FDFDFF"/>
<path d="M14 22.6891L18.3089 18.0336C18.6125 17.6975 18.8564 17.4006 19.0407 17.1429C19.2358 16.8739 19.3767 16.6218 19.4634 16.3866C19.5501 16.1401 19.5935 15.8936 19.5935 15.6471C19.5935 15.1541 19.4363 14.7675 19.122 14.4874C18.8184 14.2073 18.4228 14.0672 17.935 14.0672C17.4363 14.0672 16.9919 14.2017 16.6016 14.4706C16.2222 14.7395 15.8645 15.1653 15.5285 15.7479L14.0163 14.4202C14.4715 13.6246 15.0352 13.0252 15.7073 12.6218C16.3902 12.2073 17.1707 12 18.0488 12C18.7967 12 19.4472 12.1513 20 12.4538C20.5637 12.7563 20.9973 13.1765 21.3008 13.7143C21.6043 14.2521 21.7561 14.8796 21.7561 15.5966C21.7561 16.0784 21.6965 16.5154 21.5772 16.9076C21.4688 17.2997 21.2791 17.6919 21.0081 18.084C20.748 18.465 20.3848 18.8964 19.9187 19.3782L16.7805 22.6891H14ZM14 24V22.6891L15.8862 22.0168H22V24H14Z" fill="url(#paint0_linear_101_488)"/>
<defs>
<linearGradient id="paint0_linear_101_488" x1="14.9127" y1="8.05437" x2="47.6392" y2="26.9371" gradientUnits="userSpaceOnUse">
<stop stop-color="#A854E9"/>
<stop offset="1" stop-color="#4F91FC"/>
</linearGradient>
</defs>
</svg>
